<svg xmlns="http://www.w3.org/2000/svg" width="512" height="512" viewBox="0 0 512 512">
<g>
<path d="M 450.00 466.43 L 444.50 468.98 L 67.50 468.98 L 62.00 466.43 C55.20,463.28 49.65,458.05 46.16,451.50 L 43.50 446.50 L 43.50 65.50 L 45.86 61.00 C49.07,54.87 54.51,49.36 60.50,46.16 L 65.50 43.50 L 209.50 43.23 C350.69,42.97 353.63,43.00 360.00,44.95 C372.97,48.91 376.33,51.74 419.28,94.89 C456.39,132.17 460.00,136.09 463.28,142.74 C465.24,146.72 467.34,152.34 467.94,155.24 C468.71,158.93 468.95,203.23 468.77,303.50 L 468.50 446.50 L 465.84 451.50 C462.35,458.05 456.80,463.28 450.00,466.43 ZM 70.50 447.05 C71.60,447.50 82.50,447.90 94.72,447.94 L 116.95 448.00 L 117.22 381.25 L 117.50 314.50 L 120.00 310.04 C121.38,307.59 124.45,304.22 126.84,302.54 L 131.17 299.50 L 380.83 299.50 L 385.16 302.54 C387.55,304.22 390.62,307.59 392.00,310.04 L 394.50 314.50 L 394.78 381.30 L 395.05 448.10 L 418.51 447.80 L 441.96 447.50 L 444.73 444.73 L 447.50 441.95 L 447.50 158.50 L 444.65 153.00 C440.50,144.99 368.10,72.40 359.91,68.03 C356.78,66.36 353.72,65.00 353.11,65.00 C352.31,65.00 352.00,78.70 351.99,113.75 C351.99,144.68 351.61,163.88 350.94,166.28 C349.57,171.19 344.55,176.84 339.51,179.14 C335.73,180.85 330.37,180.96 244.91,180.98 L 154.31 181.00 L 149.91 178.67 C147.48,177.39 144.15,174.43 142.50,172.09 L 139.50 167.83 L 139.22 115.88 L 138.95 63.93 L 104.50 64.21 L 70.04 64.50 L 64.50 70.05 L 64.50 255.92 C64.50,440.38 64.52,441.81 66.50,444.01 C67.60,445.24 69.40,446.60 70.50,447.05 ZM 139.00 320.00 L 139.00 448.00 L 373.00 448.00 L 373.00 320.00 ZM 160.00 64.00 L 160.00 160.00 L 331.00 160.00 L 331.00 64.00 ZM 302.40 137.61 C298.39,139.28 298.33,139.28 294.31,137.54 C288.70,135.09 288.00,132.27 288.00,112.00 C288.00,91.88 288.62,89.28 294.14,86.43 C298.40,84.23 303.21,85.28 306.44,89.11 C309.00,92.15 309.00,92.18 309.00,111.85 C309.00,133.76 308.69,134.98 302.40,137.61 Z" fill="rgb(1,1,1)"/>
<path d="M 0.00 256.00 L 0.00 0.00 L 256.00 0.00 L 512.00 0.00 L 512.00 256.00 L 512.00 512.00 L 256.00 512.00 L 0.00 512.00 L 0.00 256.00 ZM 450.00 466.43 C456.80,463.28 462.35,458.05 465.84,451.50 L 468.50 446.50 L 468.77 303.50 C468.95,203.23 468.71,158.93 467.94,155.24 C467.34,152.34 465.24,146.72 463.28,142.74 C460.00,136.09 456.39,132.17 419.28,94.89 C376.33,51.74 372.97,48.91 360.00,44.95 C353.63,43.00 350.69,42.97 209.50,43.23 L 65.50 43.50 L 60.50 46.16 C54.51,49.36 49.07,54.87 45.86,61.00 L 43.50 65.50 L 43.50 256.00 L 43.50 446.50 L 46.16 451.50 C49.65,458.05 55.20,463.28 62.00,466.43 L 67.50 468.98 L 256.00 468.98 L 444.50 468.98 L 450.00 466.43 ZM 70.50 447.05 C69.40,446.60 67.60,445.24 66.50,444.01 C64.52,441.81 64.50,440.38 64.50,255.92 L 64.50 70.05 L 67.27 67.27 L 70.04 64.50 L 104.50 64.21 L 138.95 63.93 L 139.22 115.88 L 139.50 167.83 L 142.50 172.09 C144.15,174.43 147.48,177.39 149.91,178.67 L 154.31 181.00 L 244.91 180.98 C330.37,180.96 335.73,180.85 339.51,179.14 C344.55,176.84 349.57,171.19 350.94,166.28 C351.61,163.88 351.99,144.68 351.99,113.75 C352.00,78.70 352.31,65.00 353.11,65.00 C353.72,65.00 356.78,66.36 359.91,68.03 C368.10,72.40 440.50,144.99 444.65,153.00 L 447.50 158.50 L 447.50 300.23 L 447.50 441.95 L 444.73 444.73 L 441.96 447.50 L 418.51 447.80 L 395.05 448.10 L 394.78 381.30 L 394.50 314.50 L 392.00 310.04 C390.62,307.59 387.55,304.22 385.16,302.54 L 380.83 299.50 L 256.00 299.50 L 131.17 299.50 L 126.84 302.54 C124.45,304.22 121.38,307.59 120.00,310.04 L 117.50 314.50 L 117.22 381.25 L 116.95 448.00 L 94.72 447.94 C82.50,447.90 71.60,447.50 70.50,447.05 ZM 139.00 384.00 L 139.00 320.00 L 256.00 320.00 L 373.00 320.00 L 373.00 384.00 L 373.00 448.00 L 256.00 448.00 L 139.00 448.00 L 139.00 384.00 ZM 160.00 112.00 L 160.00 64.00 L 245.50 64.00 L 331.00 64.00 L 331.00 112.00 L 331.00 160.00 L 245.50 160.00 L 160.00 160.00 L 160.00 112.00 ZM 302.40 137.61 C308.69,134.98 309.00,133.76 309.00,111.85 C309.00,92.18 309.00,92.15 306.44,89.11 C303.21,85.28 298.40,84.23 294.14,86.43 C288.62,89.28 288.00,91.88 288.00,112.00 C288.00,132.27 288.70,135.09 294.31,137.54 C298.33,139.28 298.39,139.28 302.40,137.61 Z" fill="rgb(254,254,254)"/>
</g>
</svg>