<svg width="100.96576mm" height="95.342941mm" viewBox="0 0 100.96576 95.342941" version="1.1" id="svg1" xml:space="preserve" xmlns="http://www.w3.org/2000/svg" xmlns:svg="http://www.w3.org/2000/svg"><defs id="defs1"/><g id="layer1" transform="translate(-16.233063,-15.335109)"><path d="m 67.747202,110.54178 c -0.0428,-0.0693 -0.10343,-0.46728 -0.13465,-0.88437 -0.0447,-0.59744 -0.11584,-0.82173 -0.33516,-1.05708 -0.24128,-0.25892 -0.25665,-0.32048 -0.11536,-0.46177 0.29173,-0.29173 0.33148,-0.65641 0.13839,-1.26961 -0.26636,-0.84587 -0.8665,-1.61037 -1.7491,-2.22809 -1.12063,-0.78432 -1.99831,-1.70048 -2.16451,-2.2594 -0.27994,-0.94145 -0.14289,-1.8023 0.43102,-2.707263 l 0.34532,-0.5445 -0.0301,-3.72333 -0.0301,-3.72333 -0.57055,-0.14786 c -0.31381,-0.0813 -0.60908,-0.14885 -0.65615,-0.15006 -0.0471,-10e-4 -0.0856,0.76915 -0.0856,1.71192 0,1.62869 0.014,1.73533 0.28028,2.13959 0.39096,0.59347 0.47322,1.24578 0.24296,1.92645 -0.21103,0.62382 -0.56398,1.06642 -1.34407,1.68544 -0.29455,0.23373 -0.70433,0.688 -0.91062,1.00947 -0.3262,0.508353 -0.37722,0.689373 -0.39159,1.389443 -0.0185,0.89912 -0.261,1.69977 -0.53095,1.75271 -0.121133,0.0238 -0.202993,-0.0855 -0.2566,-0.34234 -0.0433,-0.20747 -0.146231,-0.48412 -0.228747,-0.61478 -0.09509,-0.15057 -0.11252,-0.29683 -0.0476,-0.39939 0.156745,-0.24764 0.125354,-0.82917 -0.07,-1.29671 -0.211239,-0.505573 -0.89501,-1.267533 -1.663092,-1.853283 -1.240231,-0.94581 -1.476751,-2.48739 -0.560373,-3.65237 0.216142,-0.27479 0.231259,-0.45595 0.231259,-2.77135 v -2.47734 l -2.139595,-0.83383 c -2.473532,-0.96396 -4.066976,-1.64025 -4.43888,-1.88392 -0.37469,-0.24551 -0.218768,-0.48915 0.369493,-0.57737 l 0.503395,-0.0755 v -2.58981 c 0,-2.89522 0.05303,-3.1442 0.615114,-2.88811 l 0.29778,0.13568 9.5e-5,2.71261 9.4e-5,2.71259 4.250568,0.83465 c 4.764389,0.93555 7.888449,1.422 10.754939,1.67468 1.06694,0.0941 1.97841,0.17129 2.02548,0.17165 0.0471,3.6e-4 0.0856,-1.15293 0.0856,-2.56285 0,-2.45851 0.009,-2.56857 0.23142,-2.68735 0.12728,-0.0681 0.20661,-0.16399 0.17629,-0.21305 -0.11197,-0.18117 -3.05825,-0.55965 -6.34152,-0.81464 -2.14988,-0.16697 -2.62457,-0.25941 -2.62457,-0.51111 0,-0.31641 1.33087,-0.49151 4.35771,-0.57332 2.83623,-0.0767 4.0273,-0.16191 3.89883,-0.27907 -0.23427,-0.21363 -3.91361,-0.69696 -10.807339,-1.41969 -1.434318,-0.15037 -2.661314,-0.32687 -2.72666,-0.39221 -0.116356,-0.11636 -0.05617,-0.14034 0.741512,-0.2955 0.141213,-0.0275 2.028336,-0.0565 4.193607,-0.0645 4.8824,-0.0181 7.46928,-0.10741 7.32378,-0.25289 -0.31394,-0.31396 -8.494205,-1.08757 -14.170485,-1.34012 -1.412133,-0.0628 -3.260742,-0.14609 -4.108023,-0.18503 -4.852746,-0.22299 -10.308075,-0.23222 -9.585385,-0.0162 0.156904,0.0469 1.312285,0.29157 2.567514,0.54372 2.651037,0.53254 3.023961,0.63899 3.023961,0.86315 0,0.32603 -0.61194,0.41683 -4.56447,0.67727 -0.596233,0.0393 -1.392163,0.13444 -1.768732,0.21146 -0.838784,0.17156 -0.725748,0.25889 0.823066,0.63588 1.216167,0.29603 1.382336,0.42161 1.078905,0.8154 -0.115646,0.15009 -0.815997,1.58232 -1.556336,3.18274 -2.027447,4.3828 -2.807562,6.05419 -4.308477,9.23087 -1.353475,2.86463 -1.367462,2.90261 -1.226386,3.33007 0.164296,0.49782 0.08192,1.37243 -0.194294,2.06275 -0.153437,0.38347 -0.225429,0.44614 -0.478711,0.41668 -0.357249,-0.0416 -0.548973,-0.39366 -0.722538,-1.32696 -0.104789,-0.56347 -0.09345,-0.72158 0.0776,-1.08205 0.197122,-0.41541 0.195728,-0.43173 -0.08715,-1.02087 -0.771561,-1.6069 -1.64372,-3.45616 -4.130368,-8.7577 -1.486608,-3.16945 -2.854801,-6.04507 -3.040428,-6.39026 l -0.337505,-0.62761 0.246711,-0.20046 c 0.227838,-0.18512 0.540171,-0.29299 1.931226,-0.66698 0.472323,-0.12699 0.490625,-0.14487 0.228224,-0.22302 -0.156904,-0.0467 -0.542031,-0.0905 -0.855839,-0.0973 -0.844063,-0.0182 -3.139247,-0.32244 -3.565991,-0.47273 -1.019846,-0.35918 -0.01507,-0.69515 3.223656,-1.0779 0.815899,-0.0964 1.663179,-0.21769 1.882844,-0.26948 l 0.399391,-0.0941 -0.456447,-0.12306 c -0.251046,-0.0677 -0.713198,-0.15149 -1.027006,-0.18624 -5.81364,-0.64382 -7.153954,-0.87313 -7.22382,-1.23592 -0.05255,-0.27289 0.273191,-0.40188 1.35504,-0.53661 0.880058,-0.10959 5.356408,-0.35062 6.511818,-0.35062 0.766467,0 0.376149,-0.22898 -0.600629,-0.35236 -1.527193,-0.1929 -5.017243,-0.43711 -8.087286,-0.56588 -3.239835,-0.1359 -3.30924,-0.15151 -3.30924,-0.74422 0,-0.35057 0.200486,-0.48089 1.140662,-0.74143 1.068156,-0.296 1.538276,-0.54301 2.248044,-1.18115 2.124527,-1.91013 3.315983,-6.39294 4.764179,-17.92502 0.35353,-2.81518 0.861942,-7.1277 0.861942,-7.31127 0,-0.0362 -0.243914,-0.0575 -0.542031,-0.0473 -0.83928,0.0288 -0.845761,0.0263 -0.806362,-0.30879 0.02817,-0.23955 0.240116,-0.44665 0.963458,-0.94142 1.766172,-1.20807 1.363069,-0.52762 6.245472,-10.542592 l 1.548181,-3.175687 -0.05924,-0.875279 c -0.06629,-0.979424 0.08057,-1.422211 0.491352,-1.481358 0.456079,-0.06567 0.646735,0.426269 0.566823,1.462543 -0.05008,0.649451 -0.02501,1.010016 0.08927,1.283505 0.1886,0.451383 3.601598,7.425793 4.974978,10.166291 0.529783,1.057151 1.111525,2.068697 1.292761,2.247887 0.181235,0.17919 0.757346,0.62368 1.280244,0.98776 0.5229,0.36408 0.984275,0.76075 1.025279,0.88149 0.106799,0.31448 -0.256323,0.54055 -0.809255,0.50381 l -0.456447,-0.0303 0.03396,1.18993 c 0.01868,0.65446 0.04436,1.19176 0.05706,1.194 0.0127,0.002 2.424457,-0.01 5.35946,-0.0267 l 5.33637,-0.0307 -0.03017,-3.50671 -0.03017,-3.506713 -0.342336,-0.03255 c -0.447356,-0.04254 -0.855838,-0.252807 -0.855838,-0.440546 0,-0.287466 0.535558,-0.48627 3.309241,-1.228421 1.537655,-0.411428 2.988301,-0.802325 3.223656,-0.86866 l 0.427919,-0.120607 v -2.491906 c 0,-2.127272 -0.02627,-2.513704 -0.179507,-2.640883 -0.386419,-0.320699 -0.646231,-1.036393 -0.595024,-1.639086 0.07598,-0.89425 0.365811,-1.359608 1.358056,-2.180512 1.142559,-0.945262 1.777219,-2.104714 1.46817,-2.682178 -0.0927,-0.173218 -0.07968,-0.28822 0.05429,-0.479496 0.270552,-0.386268 0.228976,-1.063865 -0.07849,-1.279223 l -0.254657,-0.178449 0.311793,-0.289111 c 0.171486,-0.159011 0.311793,-0.364058 0.311793,-0.45566 0,-0.262678 0.223364,-0.19418 0.336414,0.103167 0.0564,0.148343 0.18351,0.300783 0.28246,0.338753 0.24044,0.09227 0.22745,0.340139 -0.0301,0.573173 -0.17912,0.162104 -0.195,0.26944 -0.10809,0.730884 0.056,0.297482 0.14357,0.858906 0.19455,1.247611 0.12367,0.942957 0.50489,1.552186 1.45343,2.322765 1.00366,0.815353 1.34871,1.413614 1.34599,2.333751 -0.002,0.532256 -0.071,0.806234 -0.31197,1.23075 -0.30028,0.529055 -0.30994,0.601097 -0.30994,2.310763 0,0.970575 0.0306,1.764683 0.068,1.764683 0.0374,0 0.34839,-0.0815 0.69106,-0.181122 l 0.62304,-0.181123 -0.0349,-4.183651 -0.0349,-4.183652 -0.30691,-0.433685 c -0.96915,-1.369453 -0.52299,-3.306555 1.07408,-4.663371 1.46047,-1.240767 2.09634,-1.954904 2.35412,-2.643874 0.30566,-0.816948 0.30935,-1.256966 0.0145,-1.733979 l -0.23046,-0.372907 0.29396,-0.349361 c 0.43298,-0.51456 0.44674,-1.372292 0.025,-1.557801 -0.37679,-0.165736 -0.38242,-0.466883 -0.012,-0.645302 0.17418,-0.08391 0.34556,-0.279806 0.38257,-0.43729 0.0836,-0.355744 0.38637,-0.374695 0.4357,-0.02727 0.0209,0.147079 0.18033,0.332322 0.37086,0.430849 0.40944,0.211734 0.4259,0.443989 0.049,0.690975 -0.2441,0.159944 -0.28528,0.273055 -0.28528,0.783726 0,0.451884 0.0554,0.646959 0.22823,0.803345 0.27597,0.249758 0.29315,0.545781 0.0437,0.752828 -0.14428,0.119736 -0.17087,0.285749 -0.12184,0.760778 0.12147,1.176875 0.62166,1.858763 2.69398,3.672557 1.54992,1.356573 1.94252,2.837411 1.16066,4.377895 -0.21372,0.4211 -0.35675,0.797475 -0.31783,0.83639 0.0389,0.03892 -0.004,0.178136 -0.0964,0.30938 -0.13969,0.199428 -0.16715,0.953565 -0.16715,4.591253 v 4.352629 l 0.59909,0.227715 0.59909,0.227714 0.0308,-2.379577 0.0308,-2.379577 -0.29731,-0.449266 c -0.39585,-0.598164 -0.46173,-1.192771 -0.22362,-2.018314 0.17409,-0.603587 0.30292,-0.77762 1.25802,-1.699455 1.19357,-1.152009 1.47183,-1.643199 1.39689,-2.465844 -0.03,-0.329566 0.009,-0.604006 0.10496,-0.735009 0.25172,-0.344252 0.1942,-1.035846 -0.10388,-1.248967 l -0.25675,-0.183571 0.24203,-0.200133 c 0.13311,-0.110073 0.27868,-0.315631 0.32349,-0.456795 0.0996,-0.313827 0.33372,-0.262218 0.38464,0.08479 0.0216,0.147648 0.16042,0.300782 0.33144,0.365805 l 0.29417,0.111843 -0.31464,0.328412 c -0.27535,0.287407 -0.30493,0.385837 -0.23693,0.788334 0.0427,0.252956 0.14784,0.518127 0.23355,0.589267 0.11899,0.09875 0.12698,0.192715 0.0338,0.397228 -0.31015,0.680688 0.29016,1.767412 1.54544,2.797679 1.03603,0.850325 1.27103,1.273466 1.27103,2.288694 0,0.627216 -0.0514,0.827722 -0.31381,1.224254 l -0.31381,0.474195 v 3.290103 3.290104 l 1.28376,0.382832 c 1.93933,0.578333 2.13959,0.669385 2.13959,0.972802 0,0.311106 -0.19093,0.399209 -0.86517,0.399209 h -0.50417 v 2.852802 2.85279 h 6.83809 6.83807 l 0.0371,-1.61634 c 0.0204,-0.88898 0.0196,-1.8616 -0.002,-2.16137 -0.0365,-0.50891 -0.063,-0.54984 -0.39939,-0.61736 -0.65192,-0.130867 -0.75969,-0.182746 -0.75969,-0.365712 0,-0.09951 0.50982,-0.687558 1.13294,-1.306772 1.19346,-1.185968 1.30064,-1.360071 2.67302,-4.342007 0.22306,-0.484675 0.65993,-1.434655 0.97081,-2.111068 0.31089,-0.676412 0.90125,-1.960256 1.31191,-2.852987 0.41066,-0.89273 0.75794,-1.688659 0.77173,-1.768731 0.0138,-0.08007 -0.0128,-0.376662 -0.059,-0.659089 -0.1775,-1.08468 0.444558,-1.910937 0.907148,-1.204929 0.14775,0.225488 0.17985,0.468931 0.1401,1.062525 l -0.0516,0.770018 1.7358,3.708632 c 2.96956,6.344653 2.77471,5.994237 4.11806,7.406065 0.65094,0.684122 1.18352,1.324155 1.18352,1.422295 0,0.24989 -0.35982,0.41469 -0.90539,0.41469 -0.54787,0 -0.53016,-0.10855 -0.28934,1.77348 0.63526,4.96457 1.80137,12.73819 2.29306,15.28623 1.0334,5.35526 2.59253,9.10784 4.39927,10.58832 0.69622,0.57051 1.81558,1.0722 2.81248,1.26055 0.45966,0.0868 0.91564,0.23779 1.01327,0.33542 0.25127,0.25127 0.10328,0.74663 -0.26487,0.8866 -0.16078,0.0611 -1.17351,0.16108 -2.25052,0.22212 -3.2071,0.18176 -4.25872,0.29686 -5.37264,0.58805 -0.5269,0.13773 -0.37042,0.32126 0.27636,0.32412 0.67932,0.003 3.93913,0.44612 4.40521,0.59883 0.9745,0.31929 0.50471,0.78737 -1.12424,1.12015 -0.87274,0.17829 -6.11504,0.90732 -6.52434,0.90732 -0.0704,0 -0.0716,0.0396 -0.003,0.10747 0.0596,0.0591 1.03271,0.29518 2.16242,0.5246 1.95278,0.39657 2.56751,0.60144 2.56751,0.85569 0,0.2267 -0.72495,0.54316 -2.31361,1.00995 -1.75857,0.51672 -2.36497,0.75027 -2.36497,0.91084 0,0.0567 0.34662,0.23082 0.77026,0.38703 1.03946,0.3833 1.04966,0.54581 0.0873,1.39072 -0.41304,0.36263 -0.82337,0.7993 -0.91184,0.97039 -0.26467,0.51182 -2.34205,7.90781 -2.34205,8.33829 0,0.0466 0.33363,0.10598 0.7414,0.13194 1.1603,0.0739 1.16911,0.18881 0.0905,1.18129 -0.83948,0.77246 -0.99866,0.99073 -1.64212,2.25161 -0.3919,0.76793 -1.1086,2.31852 -1.59267,3.44575 -0.82707,1.925973 -0.86976,2.065363 -0.70809,2.312103 0.21073,0.32162 0.14235,0.73537 -0.28414,1.71919 -0.43724,1.00862 -0.649648,0.95164 -1.094128,-0.29351 -0.30695,-0.8599 -0.32446,-0.98462 -0.19378,-1.3806 0.13882,-0.42061 0.11765,-0.49658 -0.62703,-2.249843 -0.42389,-0.99799 -1.09376,-2.46185 -1.48861,-3.25302 -0.67172,-1.34596 -0.78445,-1.5006 -1.75232,-2.40375 -0.56893,-0.53088 -1.03442,-1.02053 -1.03442,-1.08811 0,-0.14922 0.34338,-0.24148 1.25233,-0.33649 0.44985,-0.047 0.68757,-0.12297 0.68757,-0.21968 0,-0.31505 -1.36291,-5.98802 -1.8346,-7.63632 -0.46641,-1.62985 -0.51396,-1.71079 -1.30922,-2.22893 -0.40479,-0.26373 -0.73598,-0.52302 -0.73598,-0.5762 0,-0.21639 0.90269,-0.4717 2.59604,-0.73426 1.04057,-0.16134 0.3965,-0.55567 -1.56903,-0.96065 -3.04653,-0.62771 -6.84347,-0.92256 -11.90031,-0.92415 -1.76177,-4.3e-4 -3.24922,0.045 -3.30546,0.10125 -0.12625,0.12626 0.14044,0.17649 2.53936,0.47823 2.02537,0.25476 4.23803,0.61366 4.92701,0.79918 0.51364,0.13831 0.65347,0.32161 0.39148,0.51319 -0.24039,0.17578 -0.71176,0.24215 -2.80803,0.3954 -1.8334,0.13404 -3.65157,0.42346 -3.65157,0.58128 0,0.0562 0.10335,0.10226 0.22967,0.10226 0.26517,0 1.82478,0.41884 1.92214,0.51621 0.13522,0.13521 -0.18434,0.44098 -0.61769,0.591 -0.67385,0.2333 -0.72974,0.33634 -0.76265,1.40609 l -0.0298,0.9671 0.72048,0.0342 c 1.22046,0.0579 0.99048,0.27133 -2.14535,1.99129 l -0.57208,0.31377 v 3.65638 c 0,3.50904 0.009,3.66634 0.23018,3.90346 0.12661,0.13589 0.2856,0.45283 0.35331,0.70431 0.25946,0.96355 -0.16276,1.96037 -1.19164,2.81335 -1.24623,1.03317 -1.79073,1.947193 -1.63219,2.739893 0.0685,0.34259 -0.3853,1.65614 -0.56225,1.6274 -0.059,-0.01 -0.18522,-0.25595 -0.28051,-0.54748 -0.0953,-0.29154 -0.24891,-0.57682 -0.34139,-0.63397 -0.13389,-0.0828 -0.13928,-0.13276 -0.0264,-0.2456 0.1946,-0.1946 0.17786,-0.92969 -0.0327,-1.433513 -0.096,-0.22974 -0.63021,-0.85944 -1.18872,-1.4012 -0.89761,-0.87066 -1.03666,-1.06055 -1.20784,-1.6494 -0.23677,-0.81444 -0.17458,-1.36793 0.22082,-1.96543 l 0.30091,-0.4547 -0.031,-2.28622 -0.031,-2.2862 -0.59909,0.28316 -0.59908,0.28317 v 4.33441 4.33441 l 0.41624,0.67437 c 0.43859,0.710573 0.59059,1.448053 0.4514,2.190013 -0.128,0.6823 -0.71902,1.40506 -1.82698,2.23418 -1.51736,1.13551 -2.01142,1.79761 -2.23974,3.00156 -0.0904,0.47657 -0.079,0.62326 0.0604,0.77726 0.22239,0.24573 0.21716,0.3064 -0.0564,0.65422 -0.16459,0.20924 -0.22823,0.46292 -0.22823,0.90986 0,0.82803 -0.27828,1.32765 -0.52086,0.93515 z m 2.91978,-11.399263 c 0.13644,-0.21616 0.14882,-8.10194 0.0127,-8.10194 -0.0544,0 -0.5807,0.22804 -1.16964,0.50675 -1.62244,0.7678 -1.93536,0.82728 -3.12379,0.59377 -0.54673,-0.10742 -1.05305,-0.20642 -1.12516,-0.22 -0.0965,-0.0181 -0.13111,0.93273 -0.13111,3.6026 0,3.09817 0.025,3.6437 0.17117,3.7398 0.10334,0.0679 1.17905,0.10017 2.71447,0.0814 2.11287,-0.0259 2.56159,-0.0601 2.65135,-0.20233 z m -4.37685,-1.44542 c -0.0418,-0.0418 -0.0761,-0.96725 -0.0761,-2.05646 v -1.98038 l 0.29414,-0.13402 c 0.20905,-0.0952 0.34935,-0.0992 0.48498,-0.0138 0.16381,0.1032 0.19527,0.39101 0.22218,2.03275 0.0215,1.31346 -0.01,1.96191 -0.0996,2.07024 -0.13461,0.1622 -0.69017,0.21715 -0.82566,0.0817 z m 2.55965,-0.0817 c -0.0899,-0.10832 -0.12109,-0.75677 -0.0996,-2.07024 0.0269,-1.64173 0.0584,-1.92954 0.22218,-2.03275 0.13563,-0.0855 0.27593,-0.0815 0.48498,0.0138 l 0.29414,0.13402 v 1.87714 c 0,1.55434 -0.0308,1.90798 -0.17932,2.05646 -0.22147,0.22147 -0.54843,0.23124 -0.72242,0.0216 z m -6.99774,-4.59133 -0.0313,-1.89628 -1.59756,-0.55465 c -0.878663,-0.30507 -1.636079,-0.55578 -1.683151,-0.55713 -0.105736,-0.003 -0.115043,4.72272 -0.0095,4.82826 0.04184,0.0418 0.813337,0.0761 1.714431,0.0761 h 1.63836 z m -2.02423,1.10499 c -0.126878,-0.23707 -0.163338,-1.81092 -0.04886,-2.10924 0.07145,-0.18619 0.34723,-0.23246 0.66313,-0.11123 0.14757,0.0566 0.1805,0.27295 0.1805,1.18596 0,0.91302 -0.0329,1.12934 -0.1805,1.18597 -0.31348,0.12029 -0.49245,0.0762 -0.614268,-0.15146 z m 17.54235,-2.84184 c 0.0166,-1.90407 -0.009,-3.44458 -0.0571,-3.42335 -0.75041,0.3319 -3.30405,1.65506 -3.36623,1.7442 -0.10653,0.15271 -0.11444,5.01891 -0.008,5.12501 0.0434,0.0434 0.82654,0.0648 1.74021,0.0476 l 1.6612,-0.0314 z m -2.13727,2.4995 c -0.065,-0.12139 -0.11812,-0.91365 -0.11812,-1.76058 0,-1.24772 0.034,-1.57388 0.17932,-1.71917 0.21183,-0.21184 0.18529,-0.20859 0.55498,-0.068 l 0.2927,0.11128 v 1.69168 c 0,1.1636 -0.0427,1.73442 -0.13693,1.82861 -0.20964,0.20964 -0.6399,0.16294 -0.77195,-0.0838 z m 19.93702,-16.27449 c 0.45343,-0.094 0.47606,-0.22585 0.0571,-0.33242 -0.59606,-0.15159 -6.9148,-0.20009 -9.15066,-0.0702 -2.10647,0.12235 -2.40366,0.16097 -2.26965,0.29498 0.22861,0.22861 10.31877,0.32421 11.36326,0.10767 z m -31.14122,-0.95081 c 0.2202,-0.13955 -0.22571,-0.20322 -3.00672,-0.42937 -1.804128,-0.1467 -3.792295,-0.19689 -8.044879,-0.20309 -5.387367,-0.008 -7.191685,0.0813 -5.762643,0.28469 0.313807,0.0447 2.034042,0.13978 3.822743,0.21137 1.788702,0.0716 3.585962,0.1444 3.993911,0.16181 1.898299,0.081 8.860668,0.0614 8.997588,-0.0254 z m 41.224378,-4.02379 c 0.0538,-0.0849 0.0986,-0.2104 0.0996,-0.27891 0.003,-0.25757 -0.34098,-5.14609 -0.39743,-5.63809 -0.15205,-1.32519 -0.952,-12.55741 -1.37752,-19.34194 -0.16533,-2.63598 -0.32543,-4.818368 -0.3558,-4.849749 -0.0304,-0.03138 -1.11631,-0.05139 -2.41323,-0.04446 -1.729198,0.0092 -2.778618,0.0748 -3.935168,0.245831 -0.86742,0.128278 -1.59322,0.250985 -1.61288,0.272681 -0.0197,0.0217 -0.0953,1.785007 -0.16798,3.918457 -0.0727,2.13345 -0.17488,3.92165 -0.22701,3.97378 -0.0973,0.0973 -65.79477,0.20397 -66.051679,0.10726 -0.150197,-0.0565 -0.204795,-1.78279 -0.07205,-2.2779 l 0.06748,-0.25167 5.513032,-0.0336 c 3.032168,-0.0185 5.555779,-0.0767 5.608024,-0.12935 0.09304,-0.0938 0.09987,-2.33377 0.0074,-2.42624 -0.203091,-0.20309 -5.407647,-0.61195 -7.843168,-0.61615 -1.271366,-0.002 -5.067374,0.19563 -5.538504,0.28862 -0.215504,0.0425 -0.246686,0.20504 -0.431061,2.24646 -0.752689,8.33387 -1.790889,15.30361 -2.978523,19.99569 -0.221517,0.87517 -0.381095,1.61288 -0.354618,1.63936 0.02648,0.0265 1.373002,0.003 2.992275,-0.0507 l 2.944134,-0.0988 0.02932,-7.86298 c 0.0208,-5.57745 0.06632,-7.90755 0.156613,-8.01635 0.176384,-0.21253 12.416792,-0.22846 12.628816,-0.0164 0.104112,0.10411 0.136934,2.22457 0.136934,8.84663 v 8.7097 l -1.740204,-0.0315 -1.740204,-0.0315 -0.02938,-7.27462 -0.02937,-7.27462 H 35.231915 32.32291 v 7.00018 c 0,6.52476 0.01356,7.01196 0.199696,7.17347 0.508895,0.44159 5.31159,1.52958 8.14514,1.84518 4.296221,0.47851 5.956089,0.49946 36.943546,0.46623 23.001958,-0.0247 27.560138,-0.055 27.641818,-0.1839 z m -55.903746,-1.40481 c -3.295569,-0.75069 -5.422308,-3.79666 -5.686235,-8.14398 -0.270578,-4.45688 1.423787,-8.09094 4.468524,-9.58405 0.938463,-0.46021 1.757223,-0.63204 2.962636,-0.62176 2.14353,0.0183 3.951399,0.98833 5.121102,2.74781 0.577378,0.8685 1.097988,2.28121 1.097988,2.97945 v 0.46485 h -1.688845 -1.688845 l -0.139563,-0.6757 c -0.352921,-1.70867 -1.678574,-2.69391 -3.251833,-2.41678 -1.452548,0.25586 -2.421862,1.39791 -3.012146,3.54893 -0.288469,1.05119 -0.282923,4.18801 0.0093,5.24914 0.448472,1.6286 1.307209,2.83623 2.333052,3.28093 0.669656,0.2903 1.925355,0.24226 2.542474,-0.0973 0.575889,-0.31684 1.180301,-1.1387 1.363045,-1.85343 0.06671,-0.26092 0.142825,-0.53859 0.169137,-0.61704 0.03544,-0.10567 0.492482,-0.14264 1.763098,-0.14264 1.956958,0 1.842514,-0.0801 1.54085,1.07809 -0.577674,2.21784 -2.443356,4.16154 -4.497699,4.68577 -1.035708,0.2643 -2.534917,0.31609 -3.40602,0.11767 z m 29.588188,0.0506 c -0.97234,-0.1316 -2.13735,-0.60034 -2.97146,-1.19554 -1.96194,-1.40002 -3.0907,-3.71583 -3.3651,-6.904 -0.42317,-4.91682 1.60793,-8.89997 5.14274,-10.08528 1.78244,-0.5977 3.49945,-0.48471 5.23609,0.34455 1.29042,0.61619 2.6277,2.0007 3.34567,3.46382 0.75434,1.53727 1.01559,2.66477 1.08403,4.67858 0.0643,1.89278 -0.10553,3.07658 -0.65907,4.59331 -0.89827,2.46132 -2.86613,4.41005 -4.97299,4.92464 -0.9086,0.22192 -2.01272,0.29187 -2.83991,0.17992 z m 2.37663,-3.45657 c 0.7623,-0.35094 1.26203,-0.86902 1.72749,-1.79094 0.91937,-1.82094 1.07782,-4.66927 0.39041,-7.01787 -0.59807,-2.04337 -1.76723,-3.13439 -3.36161,-3.13696 -1.80405,-0.003 -3.02958,1.13198 -3.65514,3.38481 -0.28486,1.02586 -0.34698,3.7639 -0.11245,4.95637 0.6143,3.12341 2.73813,4.65106 5.0113,3.60459 z m -22.147196,-5.64221 0.02924,-8.75808 h 1.768726 1.76873 l 0.0571,3.62089 0.0571,3.62089 1.43386,-2.02333 c 0.78862,-1.11282 1.96858,-2.78073 2.62212,-3.70647 l 1.18826,-1.68315 h 1.97087 c 1.3189,0 1.97088,0.0402 1.97088,0.12162 0,0.26112 -0.52378,1.00721 -3.90104,5.55677 -0.80422,1.08337 -1.46221,2.00162 -1.46221,2.04055 0,0.0705 0.42418,0.76079 4.03731,6.57059 1.04307,1.67724 1.8965,3.12905 1.8965,3.22623 0,0.15421 -0.26449,0.17275 -2.07665,0.14561 l -2.07664,-0.0311 -1.20407,-2.12245 c -2.52485,-4.45064 -2.91831,-5.11747 -3.0042,-5.09146 -0.0486,0.0147 -0.3949,0.41148 -0.76945,0.88166 l -0.681,0.85488 -8.1e-4,2.76721 -8.2e-4,2.76721 h -1.8265 -1.826493 z m 30.516086,8.682 c -0.0418,-0.0418 -0.0761,-3.96385 -0.0761,-8.71558 0,-7.35095 0.0243,-8.65969 0.16312,-8.77488 0.12143,-0.10077 1.29531,-0.12568 4.593,-0.0974 4.30012,0.0368 4.44888,0.0456 5.07897,0.29813 0.801108,0.32115 1.679458,1.13397 2.070878,1.91641 0.99208,1.9831 0.47458,4.80142 -1.05474,5.74411 l -0.45335,0.27945 0.54953,0.31385 c 2.56214,1.4633 2.48139,6.06277 -0.14021,7.98651 -1.334838,0.9795 -2.230418,1.12551 -6.903568,1.12551 -2.06332,0 -3.78571,-0.0342 -3.82756,-0.0761 z m 7.85567,-3.21776 c 1.5215,-0.6912 1.85498,-2.92854 0.60922,-4.0873 -0.46675,-0.43415 -0.83104,-0.49258 -3.07103,-0.49258 h -2.16069 v 2.39635 2.39635 l 2.08254,-0.003 c 1.7672,-0.002 2.1518,-0.034 2.53996,-0.21031 z m 0.074,-7.75282 c 1.11101,-0.69333 1.10038,-2.73985 -0.0176,-3.38376 -0.36036,-0.20756 -0.6039,-0.23001 -2.51045,-0.2314 l -2.11138,-0.002 -0.0313,1.97735 -0.0313,1.97735 2.14233,-0.0388 c 1.99633,-0.0361 2.17076,-0.0565 2.55961,-0.29921 z m 1.0766,-12.95212 c -0.17829,-0.13037 -0.19926,-0.29828 -0.16445,-1.3166 0.0301,-0.87937 0.0821,-1.19452 0.21107,-1.27811 0.18159,-0.11769 0.67209,-0.0464 0.84528,0.12278 0.17509,0.17109 0.12077,2.40347 -0.0613,2.5188 -0.22866,0.14485 -0.59683,0.12407 -0.83061,-0.0469 z m -28.82365,-3.11341 v -4.518066 l -1.11259,0.0744 c -2.70479,0.180874 -10.011748,0.99559 -14.168234,1.579739 l -1.778882,0.250002 -0.03016,3.565995 -0.03016,3.56599 h 8.560006 8.56 z m -14.524969,2.39323 c -0.04473,-0.0447 -0.08133,-0.76502 -0.08133,-1.60065 v -1.519312 l 0.301304,-0.07562 c 0.165717,-0.04159 0.435306,-0.0285 0.599087,0.0291 l 0.297782,0.104724 v 1.537758 1.53776 l -0.517751,0.0338 c -0.284764,0.0186 -0.554353,-0.003 -0.599087,-0.0476 z m 3.525393,-0.22379 c -0.133295,-0.34737 -0.07633,-2.96192 0.06767,-3.105921 0.07531,-0.07531 0.321795,-0.136934 0.547736,-0.136934 0.64049,0 0.68467,0.110452 0.68467,1.711675 0,0.96615 -0.0449,1.48273 -0.136934,1.57474 -0.208309,0.20831 -1.079003,0.1757 -1.163142,-0.0436 z m 3.721816,-1.67382 0.0317,-1.626091 0.50048,-0.03585 c 0.27526,-0.01971 0.54173,0.006 0.59215,0.05706 0.0905,0.09174 0.15439,1.467891 0.12214,2.631881 l -0.0166,0.59909 h -0.63075 -0.63075 z m 3.7403,-0.17118 c 0,-1.728781 0.0426,-1.854302 0.62862,-1.854302 0.70599,0 0.7513,0.11564 0.71569,1.826822 l -0.0321,1.53947 -0.65614,0.0342 -0.65614,0.0342 z m 11.06883,-7.331665 v -3.195129 h -1.7095 c -1.67807,0 -1.71066,0.0047 -1.77252,0.256752 -0.0347,0.141212 -0.0485,1.304569 -0.0307,2.585236 l 0.0323,2.328485 0.59909,0.203552 0.59909,0.203552 v -1.81141 c 0,-0.996276 0.0501,-1.943129 0.11129,-2.104118 0.13692,-0.360146 0.62003,-0.403749 0.79759,-0.07199 0.0691,0.12912 0.11812,1.088725 0.11812,2.312242 v 2.09152 l 0.59909,0.184926 c 0.3295,0.10171 0.61192,0.190908 0.62761,0.198217 0.0157,0.0073 0.0285,-1.424518 0.0285,-3.181838 z m -18.221147,1.415669 0.533831,-0.181894 v -1.336804 c 0,-1.520981 0.103928,-1.807337 0.609856,-1.680356 l 0.30304,0.07606 v 1.367166 c 0,0.751942 0.0385,1.366387 0.0856,1.365435 0.0471,-9.49e-4 0.31666,-0.07076 0.59909,-0.155129 l 0.5135,-0.153396 0.0312,-1.959005 0.0312,-1.959004 -1.68586,0.03159 -1.685853,0.0316 -0.03084,2.367818 c -0.01696,1.302301 0.0124,2.367819 0.06526,2.367819 0.05285,0 0.336322,-0.08185 0.629929,-0.181895 z m 11.602667,-4.892062 c 0,-4.136308 -0.007,-4.279083 -0.22474,-4.395454 -0.14376,-0.07694 -1.16146,-0.109223 -2.82426,-0.0896 l -2.59953,0.03068 v 3.822743 3.822744 l 0.34234,-0.02311 c 0.18828,-0.0127 0.70178,-0.05308 1.14111,-0.08972 0.77478,-0.06462 0.84337,-0.04801 2.28224,0.552623 0.8159,0.340585 1.57331,0.624874 1.68314,0.631755 0.18686,0.01171 0.1997,-0.26238 0.1997,-4.262666 z m -4.48296,2.036408 c -0.0448,-0.04483 -0.0815,-1.016639 -0.0815,-2.159581 0,-2.307987 0.0506,-2.480899 0.66296,-2.265544 l 0.30699,0.107963 v 2.165375 2.165375 l -0.40347,0.03396 c -0.22191,0.01868 -0.44015,-0.0027 -0.48497,-0.04755 z m 2.56589,-0.06629 c -0.14447,-0.144462 -0.20396,-3.77778 -0.0677,-4.132924 0.0937,-0.244291 0.79474,-0.244291 0.88848,0 0.0381,0.09928 0.0693,1.019381 0.0693,2.044679 0,1.025298 -0.0312,1.945403 -0.0693,2.044678 -0.0818,0.213251 -0.62243,0.241945 -0.8208,0.04357 z m -2.50525,51.12727 c -0.17019,-0.17018 -0.19522,-2.11799 -0.0306,-2.37873 0.11413,-0.18076 0.49339,-0.25093 0.8335,-0.15424 0.18203,0.0518 0.19997,0.19146 0.17116,1.33273 l -0.0322,1.27491 -0.39988,0.0337 c -0.21994,0.0185 -0.46385,-0.0302 -0.54203,-0.1084 z m -3.63127,-0.47745 c -0.0322,-0.084 -0.0435,-0.55899 -0.0249,-1.05554 l 0.0337,-0.9028 h 0.45644 0.45645 l 0.0335,0.82553 c 0.0404,0.99553 -0.0847,1.28554 -0.55459,1.28554 -0.18805,0 -0.36827,-0.0687 -0.40051,-0.15273 z m -3.852066,-0.60802 c -0.123785,-0.12379 -0.08663,-2.88611 0.04205,-3.12656 0.135407,-0.25301 0.777182,-0.30677 1.000168,-0.0838 0.09201,0.092 0.136938,0.60859 0.136938,1.57474 0,0.96614 -0.04492,1.48273 -0.136938,1.57474 -0.14489,0.14489 -0.913318,0.18976 -1.04222,0.0609 z m -3.537484,-0.11402 c -0.04184,-0.0418 -0.07607,-0.73327 -0.07607,-1.53649 0,-1.63587 0.03756,-1.71059 0.798782,-1.5892 l 0.399391,0.0637 0.03226,1.4252 c 0.02809,1.24078 0.0068,1.44381 -0.164449,1.56904 -0.207736,0.1519 -0.86105,0.19662 -0.989909,0.0678 z" id="path1" stroke="black" stroke-width="1"/></g></svg>